<svg width="32" height="32" viewBox="0 0 32 32" fill="none" xmlns="http://www.w3.org/2000/svg">
<path d="M23.2268 11.9437L23.2271 11.9446C23.4966 12.5659 23.6351 13.2281 23.6333 13.909M23.2268 11.9437L11.4342 20.1455C12.9874 21.5686 14.5232 22.5612 14.6775 22.6577L15.07 22.9074L15.0713 22.9083C15.475 23.1639 15.9916 23.1639 16.3953 22.9083L16.3967 22.9074L16.7916 22.6561C16.7916 22.6561 16.7917 22.6561 16.7917 22.656C16.8722 22.6048 18.4407 21.6024 20.0322 20.1456L20.0324 20.1455C20.9947 19.264 21.7863 18.3796 22.3714 17.514L22.3717 17.5137C22.74 16.9681 23.0388 16.4153 23.2481 15.8687C23.5 15.2152 23.6332 14.5562 23.6333 13.909M23.2268 11.9437C22.9669 11.3467 22.5925 10.8061 22.1246 10.3519L23.2268 11.9437ZM23.6333 13.909C23.6333 13.9095 23.6333 13.91 23.6333 13.9104L22.9333 13.9084H23.6333C23.6333 13.9086 23.6333 13.9088 23.6333 13.909ZM21.149 11.356L21.1484 11.3554C20.8095 11.0258 20.4097 10.7636 19.9705 10.5833L19.9696 10.5829C19.5139 10.3951 19.0249 10.2989 18.5311 10.3L18.5295 10.3C17.8346 10.3 17.1584 10.4887 16.5717 10.8439L16.5717 10.8439C16.4313 10.9288 16.2985 11.0218 16.173 11.1228L15.7342 11.476L15.2953 11.1228C15.1698 11.0218 15.037 10.9288 14.8966 10.8439L14.8966 10.8439C14.3099 10.4887 13.6337 10.3 12.9388 10.3C12.4373 10.3 11.9546 10.395 11.4987 10.5829L11.498 10.5832C11.057 10.7644 10.6606 11.0243 10.3197 11.3557L10.3187 11.3566C9.98112 11.6834 9.71174 12.0725 9.52557 12.5016L21.149 11.356ZM21.149 11.356C21.4863 11.6834 21.7558 12.0725 21.9427 12.5016L21.149 11.356ZM8.24117 11.9446L8.24119 11.9445C8.50058 11.3466 8.87549 10.8053 9.34444 10.3512C9.81337 9.8956 10.3601 9.5372 10.9656 9.28842C11.593 9.02986 12.257 8.9 12.9388 8.9C13.8875 8.9 14.8148 9.15781 15.6216 9.64617C15.6216 9.64617 15.6216 9.64618 15.6216 9.64618L8.24117 11.9446ZM8.24117 11.9446C7.9715 12.5663 7.83333 13.2284 7.83333 13.9084C7.83333 14.5558 7.96658 15.215 8.21854 15.8687L8.21867 15.869M8.24117 11.9446L8.21867 15.869M8.21867 15.869C8.42896 16.4137 8.72547 16.9664 9.09497 17.5137L9.0952 17.514M8.21867 15.869L9.0952 17.514M9.0952 17.514C9.68034 18.3796 10.4719 19.2639 11.4341 20.1454L9.0952 17.514ZM12.3799 19.1131L12.38 19.1132C13.1291 19.7996 13.8773 20.3823 14.4475 20.7988C14.732 21.0066 14.9709 21.1721 15.1415 21.2874C15.2268 21.345 15.2948 21.3899 15.3428 21.4212C15.3936 21.4543 15.4171 21.469 15.4155 21.4681L15.4266 21.4748L15.4266 21.4749L15.7333 21.6701L16.0401 21.4749L16.0402 21.4748C16.0914 21.4423 17.5822 20.4902 19.0868 19.1131H12.3799ZM12.3799 19.1131C11.4754 18.2846 10.7636 17.4821 10.2553 16.7303M12.3799 19.1131L10.2553 16.7303M21.9412 15.3667L21.9418 15.3652C22.1399 14.8512 22.2333 14.3626 22.2333 13.9084V13.9064C22.2347 13.4205 22.1366 12.9489 21.9431 12.5025L21.9412 15.3667ZM21.9412 15.3667C21.7771 15.7954 21.5328 16.2542 21.2114 16.7303M21.9412 15.3667L21.2114 16.7303M18.5287 8.9C19.206 8.89856 19.877 9.03054 20.5027 9.28841C21.1066 9.53641 21.6572 9.89732 22.1245 10.3518L15.7342 9.71633C15.7713 9.69248 15.8089 9.6691 15.8467 9.64617C16.6533 9.15794 17.5803 8.90014 18.5287 8.9ZM18.5287 8.9C18.529 8.9 18.5292 8.9 18.5295 8.9V9.6L18.5279 8.9C18.5282 8.9 18.5284 8.9 18.5287 8.9ZM10.2553 16.7303C9.93479 16.2556 9.69128 15.7961 9.52486 15.3652L10.2553 16.7303ZM21.2114 16.7303C20.7031 17.482 19.9913 18.2845 19.087 19.1129L21.2114 16.7303ZM0.7 7C0.7 3.52061 3.52061 0.7 7 0.7H25C28.4794 0.7 31.3 3.52061 31.3 7V25C31.3 28.4794 28.4794 31.3 25 31.3H7C3.52061 31.3 0.7 28.4794 0.7 25V7ZM9.23333 13.9084C9.23333 13.4208 9.33185 12.9483 9.52555 12.5017L9.52473 15.3648C9.32673 14.851 9.23333 14.3625 9.23333 13.9084Z" stroke="#ECECEC" stroke-width="1.4"/>
</svg>
